<?xml version="1.0" standalone="no"?>
<!DOCTYPE svg PUBLIC "-//W3C//DTD SVG 20010904//EN"
 "http://www.w3.org/TR/2001/REC-SVG-20010904/DTD/svg10.dtd">
<svg version="1.0" xmlns="http://www.w3.org/2000/svg"
 width="209.000000pt" height="157.000000pt" viewBox="0 0 209.000000 157.000000"
 preserveAspectRatio="xMidYMid meet">
<metadata>
Created by potrace 1.10, written by Peter Selinger 2001-2011
</metadata>
<g transform="translate(0.000000,157.000000) scale(0.100000,-0.100000)"
fill="#000000" stroke="none">
<path d="M818 1223 c-10 -2 -18 -13 -18 -23 0 -14 15 -21 68 -34 37 -9 82 -19
101 -22 19 -4 41 -12 48 -20 18 -17 33 -18 33 -1 0 8 3 8 9 -2 6 -9 15 -11 27
-6 27 11 39 14 138 28 92 13 116 27 103 62 -5 11 -13 15 -24 10 -65 -24 -347
-30 -377 -7 -14 11 -85 21 -108 15z m288 -64 c6 -11 -50 -10 -86 0 -19 6 -12
8 28 8 29 0 55 -3 58 -8z"/>
<path d="M690 1090 c-8 -5 -37 -17 -64 -26 -45 -15 -49 -15 -58 0 -15 26 -90
21 -140 -10 -35 -22 -48 -25 -88 -20 -26 4 -58 2 -71 -3 -29 -12 -23 -13 66
-11 49 1 80 7 103 21 41 23 90 25 121 2 19 -13 27 -14 43 -4 11 7 22 10 25 7
3 -3 18 1 34 9 35 19 59 20 35 2 -17 -12 -16 -14 13 -14 21 0 33 6 37 19 10
34 -21 50 -56 28z"/>
<path d="M768 1028 c-59 -22 -80 -44 -30 -32 15 4 29 10 32 13 3 3 14 6 26 7
32 2 25 -23 -15 -53 -20 -15 -46 -38 -58 -51 -12 -14 -29 -22 -37 -19 -9 4
-12 0 -9 -12 2 -10 -3 -25 -11 -34 -9 -8 -16 -26 -15 -39 0 -13 3 -18 5 -11 3
7 11 10 19 7 10 -4 12 0 8 14 -4 15 8 33 43 66 26 25 51 46 55 46 19 0 80 75
77 94 -4 28 -23 29 -90 4z"/>
<path d="M85 1013 c-16 -3 -34 -9 -40 -15 -7 -7 1 -8 25 -3 19 4 67 11 105 15
l70 7 -65 0 c-36 0 -78 -2 -95 -4z"/>
<path d="M1045 980 c3 -5 0 -7 -8 -4 -9 3 -16 -3 -20 -16 -5 -19 -2 -20 29
-14 26 5 40 2 56 -12 l21 -19 -18 28 c-9 15 -22 27 -27 27 -5 0 -6 5 -3 10 3
6 -3 10 -15 10 -12 0 -18 -4 -15 -10z"/>
<path d="M999 900 c-2 -51 -7 -92 -13 -98 -6 -5 -75 -4 -197 3 -73 4 -99 -4
-75 -24 19 -16 160 -33 199 -25 16 3 34 1 42 -6 11 -10 15 -10 15 -1 0 7 4 10
9 6 5 -3 13 0 17 6 5 8 -1 10 -20 7 -14 -3 -26 -1 -26 3 0 5 8 9 18 9 9 0 28
14 42 30 25 30 50 40 50 19 0 -7 7 -17 16 -24 22 -15 21 -59 -2 -117 -20 -52
-20 -54 17 -63 32 -8 50 22 25 41 -20 14 -20 54 -1 80 8 11 15 14 15 7 0 -7 7
-13 15 -13 8 0 22 -16 31 -35 15 -32 40 -42 28 -11 -3 8 5 21 17 30 27 19 49
6 49 -30 0 -36 36 -32 43 5 l6 29 115 7 c123 7 154 3 174 -26 14 -20 82 -27
82 -9 0 6 7 10 15 10 8 0 19 9 25 19 37 70 -43 131 -110 84 -22 -16 -58 -19
-264 -23 -154 -3 -244 -1 -253 5 -12 9 -11 17 2 54 19 56 19 56 -10 33 -35
-27 -57 -22 -77 19 l-18 34 -1 -35z m711 -106 c23 -26 1 -67 -44 -82 -34 -11
-40 -10 -52 5 -7 10 -14 28 -14 40 0 44 82 72 110 37z"/>
<path d="M671 787 c-2 -17 20 -47 34 -47 8 0 15 -5 15 -11 0 -5 5 -7 11 -3 6
4 -1 14 -19 24 -16 10 -32 24 -35 32 -3 7 -6 9 -6 5z"/>
<path d="M776 721 c5 -5 27 -6 49 -1 l40 8 -49 1 c-30 1 -46 -3 -40 -8z"/>
<path d="M886 714 c-3 -8 -2 -13 3 -10 5 3 24 0 41 -8 22 -9 28 -15 19 -19 -9
-3 -9 -6 -2 -6 27 -2 22 20 -9 39 -40 24 -44 24 -52 4z"/>
<path d="M918 662 c10 -7 3 -11 -25 -15 -56 -10 -85 -8 -78 3 3 6 1 10 -4 10
-6 0 -11 -5 -11 -11 0 -5 -5 -7 -10 -4 -6 4 -42 1 -80 -5 l-68 -12 -27 -54
c-18 -37 -32 -54 -41 -50 -8 3 -13 0 -11 -7 1 -7 -6 -11 -16 -10 -10 0 -16 -1
-13 -4 2 -3 -7 -16 -21 -29 -54 -50 32 -10 98 46 22 18 31 35 32 61 l2 36 127
2 c96 2 140 7 180 21 37 14 46 19 28 20 -14 0 -36 3 -50 6 -17 4 -21 3 -12 -4z"/>
<path d="M980 631 c0 -24 14 -41 35 -41 21 0 35 17 35 41 0 5 -16 9 -35 9 -19
0 -35 -4 -35 -9z"/>
<path d="M1911 471 c-19 -12 3 -18 43 -13 27 4 28 6 11 13 -27 10 -37 10 -54
0z"/>
<path d="M973 446 c19 -19 87 -22 87 -3 0 7 -19 13 -51 15 -47 3 -50 2 -36
-12z"/>
<path d="M1144 435 c15 -8 40 -15 55 -15 14 0 41 -4 60 -10 38 -11 100 -17
261 -25 63 -3 158 -10 211 -16 92 -9 134 -6 124 11 -3 4 -20 8 -37 8 -18 0
-46 2 -62 5 -59 12 -408 45 -566 54 -72 4 -74 3 -46 -12z"/>
<path d="M735 420 c3 -5 19 -10 36 -10 16 0 29 5 29 10 0 6 -16 10 -36 10 -21
0 -33 -4 -29 -10z"/>
<path d="M810 420 c0 -5 11 -10 24 -10 13 0 39 -2 57 -5 28 -4 26 -3 -11 10
-53 17 -70 19 -70 5z"/>
<path d="M760 261 c0 -5 -9 -11 -20 -14 -11 -3 -18 -1 -14 4 3 5 -10 9 -28 8
-31 -1 -31 -2 -8 -8 l25 -8 -25 -4 c-14 -3 -39 0 -56 5 -54 15 -97 1 -119 -40
-15 -28 -16 -37 -6 -44 8 -4 11 -12 8 -17 -10 -16 52 -35 103 -31 42 2 50 0
50 -14 0 -10 5 -18 11 -18 6 0 8 9 4 23 -6 20 -5 20 17 -5 30 -36 72 -46 87
-21 6 11 11 13 11 5 0 -10 4 -10 16 2 8 9 32 17 52 18 116 4 108 5 163 -23 16
-8 19 -8 14 2 -6 8 -4 10 4 5 7 -5 10 -13 8 -20 -3 -6 6 -12 21 -13 19 -1 22
1 11 9 -10 7 -8 9 9 5 12 -3 20 -2 18 1 -2 4 8 16 22 26 l25 19 -6 -24 -6 -24
18 21 c15 19 27 21 101 20 55 -1 85 -6 88 -14 2 -7 8 -9 14 -6 7 4 7 0 0 -13
-9 -15 -7 -19 8 -19 10 0 16 4 13 9 -3 5 6 7 20 5 17 -2 35 6 52 22 22 21 28
22 35 10 7 -10 10 -11 10 -2 0 6 9 12 20 12 11 0 23 7 27 16 3 8 11 13 18 10
8 -3 16 2 19 10 3 7 0 13 -6 11 -6 -1 -13 4 -16 12 -3 8 0 11 7 7 19 -12 12 3
-15 33 -27 31 -70 46 -78 27 -3 -8 -7 -7 -13 1 -7 10 -18 10 -44 3 -18 -6 -35
-7 -36 -3 -2 5 -29 7 -60 6 -40 -1 -52 1 -42 8 14 10 -28 5 -75 -8 -13 -4 -16
-1 -11 7 5 8 4 11 -3 6 -6 -3 -31 -10 -57 -15 -39 -7 -45 -6 -41 6 4 11 1 13
-15 8 -11 -4 -26 -1 -34 5 -14 12 -44 3 -100 -28 -5 -3 -4 1 2 9 11 13 8 16
-18 16 -19 0 -25 -3 -17 -9 10 -6 9 -8 -3 -8 -9 0 -22 7 -29 15 -7 8 -22 15
-34 14 -19 -1 -19 -2 4 -9 20 -7 15 -8 -23 -7 -27 0 -50 4 -53 9 -7 11 -24 10
-24 -1z m30 -41 c5 0 15 -7 24 -15 13 -13 15 -13 21 5 5 14 15 20 37 20 24 0
29 -3 24 -16 -5 -13 -2 -14 11 -8 10 4 48 12 85 17 53 8 73 8 93 -3 14 -7 28
-11 31 -7 3 3 17 2 31 -4 16 -6 31 -5 44 1 13 8 25 7 39 0 14 -8 26 -8 40 0
14 8 26 8 40 0 13 -7 26 -7 38 -1 11 6 23 6 33 0 12 -8 10 -13 -8 -28 -26 -22
-29 -31 -10 -31 7 0 20 13 30 29 16 28 21 29 82 29 72 0 90 -14 74 -55 -9 -25
-47 -31 -67 -11 -8 8 -14 5 -21 -14 -5 -14 -17 -28 -27 -32 -19 -7 -54 1 -54
14 0 13 -59 40 -66 29 -7 -13 -51 -11 -60 2 -4 8 -9 8 -17 0 -14 -14 -50 -14
-63 -1 -8 8 -18 3 -35 -14 -29 -31 -78 -35 -86 -7 -4 16 -13 18 -66 16 -34 -1
-68 2 -74 8 -9 6 -13 6 -13 -1 0 -18 -33 -19 -62 -3 -16 8 -28 20 -28 27 0 6
-11 16 -25 22 -31 14 -32 6 -3 -17 43 -35 -4 -97 -54 -70 -19 10 -27 79 -8 79
6 0 10 5 10 12 0 6 -8 4 -19 -6 -11 -10 -17 -24 -14 -32 3 -8 1 -14 -5 -14 -6
0 -12 6 -15 13 -3 9 -8 8 -18 -5 -11 -13 -25 -15 -66 -11 -56 6 -71 22 -58 63
5 16 14 19 63 17 54 -2 57 -3 55 -27 l-3 -25 16 28 c15 28 56 38 69 17 4 -6
11 -8 16 -4 5 3 6 10 3 16 -5 8 -1 9 10 5 10 -4 21 -7 26 -7z"/>
<path d="M470 181 c0 -16 6 -31 15 -35 18 -6 19 -2 4 26 -9 16 -8 23 2 29 11
7 10 9 -3 9 -13 0 -18 -8 -18 -29z"/>
</g>
</svg>
